# xmcd CD database file
#
# Track frame offsets:
#	150
#	13172
#	24125
#	36470
#	49170
#	59655
#	72090
#	85090
#	98780
#	112295
#	125087
#	138327
#	152765
#	164335
#
# Disc length: 2352 seconds
#
# Revision: 0
# Processed by: cddbd v1.4PL0 Copyright (c) Steve Scherf et al.
# Submitted via: Feurio! 1.63 - http://www.feurio.com
#
DISCID=c3092e0e
DTITLE=Various Artist - 20th Century Rhythm and Blues
DYEAR=1994
DGENRE=Folk
TTITLE0=Muddy Waters - I'm Your Hoochie Coochi Man
TTITLE1=Howlin Wolf - The Red Rooster
TTITLE2=John Lee Hooker - I'm In The Mood
TTITLE3=Albert King - Califonia Blues
TTITLE4=Bo Diddley - Mona
TTITLE5=Little Milton - Poor Man's Song
TTITLE6=Sonny Boy Williamson - Too Young to Die
TTITLE7=Lowell Fulson - Loving You
TTITLE8=Memphis Slim - Slim's Blues
TTITLE9=Sonny Boy Williamson - Keep Your Hand Outta My Pocket
TTITLE10=Jimmy Rodgers - Left Me With A Broken Heart
TTITLE11=Otis Rush - So Many Roads So Many Trains
TTITLE12=Little Walter - My Babe
TTITLE13=Elmore James - The Sun Is Shining
EXTD=
EXTT0=
EXTT1=
EXTT2=
EXTT3=
EXTT4=
EXTT5=
EXTT6=
EXTT7=
EXTT8=
EXTT9=
EXTT10=
EXTT11=
EXTT12=
EXTT13=
PLAYORDER=
